<?xml version="1.0" encoding="UTF-8" standalone="no"?>
<!-- Generato da Microsoft Visio, esportazione SVG logo.svg Pagina 1 -->

<svg
   xmlns:v="http://schemas.microsoft.com/visio/2003/SVGExtensions/"
   xmlns:dc="http://purl.org/dc/elements/1.1/"
   xmlns:cc="http://creativecommons.org/ns#"
   xmlns:rdf="http://www.w3.org/1999/02/22-rdf-syntax-ns#"
   xmlns:svg="http://www.w3.org/2000/svg"
   xmlns="http://www.w3.org/2000/svg"
   xmlns:sodipodi="http://sodipodi.sourceforge.net/DTD/sodipodi-0.dtd"
   xmlns:inkscape="http://www.inkscape.org/namespaces/inkscape"
   width="3.833859in"
   height="1.0210924in"
   viewBox="0 0 276.03824 73.51878"
   xml:space="preserve"
   class="st8"
   version="1.1"
   id="svg481"
   sodipodi:docname="barrel-logo.svg"
   inkscape:version="0.92.2 (5c3e80d, 2017-08-06)"
   style="font-size:12px;overflow:visible;color-interpolation-filters:sRGB;fill:none;fill-rule:evenodd;stroke-linecap:square;stroke-miterlimit:3"
   inkscape:export-filename="C:\Users\jacop\Desktop\barrel\img\barrel-logo.png"
   inkscape:export-xdpi="96"
   inkscape:export-ydpi="96"><metadata
     id="metadata487"><rdf:RDF><cc:Work
         rdf:about=""><dc:format>image/svg+xml</dc:format><dc:type
           rdf:resource="http://purl.org/dc/dcmitype/StillImage" /><dc:title /></cc:Work></rdf:RDF></metadata><defs
     id="defs485"><inkscape:path-effect
       effect="bspline"
       id="path-effect1239"
       is_visible="true"
       weight="33.333333"
       steps="2"
       helper_size="0"
       apply_no_weight="true"
       apply_with_weight="true"
       only_selected="false" /><inkscape:path-effect
       effect="bspline"
       id="path-effect1210"
       is_visible="true"
       weight="33.333333"
       steps="2"
       helper_size="0"
       apply_no_weight="true"
       apply_with_weight="true"
       only_selected="false" /><inkscape:path-effect
       effect="bspline"
       id="path-effect1176"
       is_visible="true"
       weight="33.333333"
       steps="2"
       helper_size="0"
       apply_no_weight="true"
       apply_with_weight="true"
       only_selected="false" /><inkscape:path-effect
       effect="bspline"
       id="path-effect1172"
       is_visible="true"
       weight="33.333333"
       steps="2"
       helper_size="0"
       apply_no_weight="true"
       apply_with_weight="true"
       only_selected="false" /><inkscape:path-effect
       effect="bspline"
       id="path-effect1164"
       is_visible="true"
       weight="33.333333"
       steps="2"
       helper_size="0"
       apply_no_weight="true"
       apply_with_weight="true"
       only_selected="false" /><inkscape:path-effect
       effect="bspline"
       id="path-effect1160"
       is_visible="true"
       weight="33.333333"
       steps="2"
       helper_size="0"
       apply_no_weight="true"
       apply_with_weight="true"
       only_selected="false" /><inkscape:path-effect
       effect="bspline"
       id="path-effect1156"
       is_visible="true"
       weight="33.333333"
       steps="2"
       helper_size="0"
       apply_no_weight="true"
       apply_with_weight="true"
       only_selected="false" /><inkscape:path-effect
       effect="bspline"
       id="path-effect1152"
       is_visible="true"
       weight="33.333333"
       steps="2"
       helper_size="0"
       apply_no_weight="true"
       apply_with_weight="true"
       only_selected="false" /><inkscape:path-effect
       effect="bspline"
       id="path-effect1148"
       is_visible="true"
       weight="33.333333"
       steps="2"
       helper_size="0"
       apply_no_weight="true"
       apply_with_weight="true"
       only_selected="false" /><inkscape:path-effect
       effect="bspline"
       id="path-effect1141"
       is_visible="true"
       weight="33.333333"
       steps="2"
       helper_size="0"
       apply_no_weight="true"
       apply_with_weight="true"
       only_selected="false" /><inkscape:path-effect
       effect="bspline"
       id="path-effect1137"
       is_visible="true"
       weight="33.333333"
       steps="2"
       helper_size="0"
       apply_no_weight="true"
       apply_with_weight="true"
       only_selected="false" /></defs><sodipodi:namedview
     pagecolor="#ffffff"
     bordercolor="#666666"
     borderopacity="1"
     objecttolerance="10"
     gridtolerance="10"
     guidetolerance="10"
     inkscape:pageopacity="0"
     inkscape:pageshadow="2"
     inkscape:window-width="1920"
     inkscape:window-height="1017"
     id="namedview483"
     showgrid="true"
     inkscape:zoom="7.161916"
     inkscape:cx="299.72542"
     inkscape:cy="43.960485"
     inkscape:window-x="-8"
     inkscape:window-y="-8"
     inkscape:window-maximized="1"
     inkscape:current-layer="layer1"
     inkscape:snap-text-baseline="true"
     fit-margin-top="0"
     fit-margin-left="0"
     fit-margin-right="0"
     fit-margin-bottom="0"><inkscape:grid
       type="xygrid"
       id="grid830" /></sodipodi:namedview><v:documentProperties
     v:langID="1040"
     v:metric="true"
     v:viewMarkup="false" /><style
     type="text/css"
     id="style2"><![CDATA[
		.st1 {fill:none;stroke:none;stroke-linecap:round;stroke-linejoin:round;stroke-width:0.75}
		.st2 {fill:#6c3f06;font-family:Berlin Sans FB Demi;font-size:2.50001em}
		.st3 {stroke:#6c3f06;stroke-linecap:round;stroke-linejoin:round;stroke-width:1.5}
		.st4 {fill:none;stroke:none;stroke-linecap:round;stroke-linejoin:round;stroke-width:1.5}
		.st5 {fill:#6c3f06;stroke:#6c3f06;stroke-linecap:round;stroke-linejoin:round;stroke-width:1.5}
		.st6 {fill:#6c3f06;stroke:#6c3f06;stroke-linecap:butt;stroke-width:0.5}
		.st7 {fill:#6c3f06;stroke:#6c3f06;stroke-linecap:round;stroke-linejoin:round;stroke-width:0.24}
		.st8 {fill:none;fill-rule:evenodd;font-size:12px;overflow:visible;stroke-linecap:square;stroke-miterlimit:3}
	]]></style><g
     inkscape:groupmode="layer"
     id="layer2"
     inkscape:label="BG"
     transform="translate(-11.869608,-32.194107)"><path
       style="fill:#0d7c67;fill-opacity:1;stroke:none;stroke-width:0.67175579px;stroke-linecap:butt;stroke-linejoin:miter;stroke-opacity:1"
       d="m 237.65763,51.476986 c 1.5745,0.01234 4.72292,0.03703 6.52536,0.05554 1.80243,0.01851 2.25939,0.03085 2.75184,0.06795 0.49244,0.0371 1.01847,0.0987 1.17963,0.462462 0.16115,0.363762 -0.043,1.02939 -1.04034,3.298802 -0.99736,2.269412 -2.78593,6.137461 -3.6705,8.160612 -0.88457,2.023151 -0.86501,2.202286 -0.79537,2.329342 0.0696,0.127057 0.18766,0.200614 1.54168,0.225288 1.35402,0.02467 3.95326,-6e-5 5.46432,0.03703 1.51106,0.03709 1.93909,0.135791 2.29882,0.314749 0.35973,0.178957 0.65106,0.437898 0.67111,1.005486 0.0201,0.567588 -0.23081,1.440897 -2.80544,5.877434 -2.57462,4.436536 -7.44504,12.387346 -10.22904,16.654475 -2.784,4.267128 -3.46708,4.827438 -4.0749,5.065918 -0.60782,0.238481 -1.13502,0.152253 -1.5652,-0.116197 -0.43018,-0.26845 -0.76213,-0.719195 -0.9279,-1.154418 -0.16578,-0.435224 -0.16578,-0.854954 0.40753,-3.541007 0.57331,-2.686052 1.72385,-7.656183 2.35734,-10.40212 0.63349,-2.745938 0.75204,-3.276716 0.44586,-3.467663 -0.30617,-0.190947 -1.03605,-0.04319 -2.13746,-0.01215 -1.10141,0.03103 -2.56268,-0.05507 -3.50459,-0.147686 -0.94191,-0.09261 -1.35686,-0.191203 -1.59591,-0.419979 -0.23905,-0.228776 -0.30073,-0.586532 -0.2809,-0.956918 0.0198,-0.370386 0.12089,-0.753068 0.28998,-1.313764 0.16908,-0.560696 0.4072,-1.302737 1.26762,-4.692937 0.86042,-3.3902 2.34733,-9.444906 3.14569,-12.678324 0.79836,-3.233417 0.91,-3.653087 1.03917,-3.918346 0.12917,-0.265258 0.27509,-0.376217 0.55616,-0.474807 0.28107,-0.09859 0.69613,-0.184876 0.90354,-0.227995 0.20742,-0.04312 0.20739,-0.04312 1.7819,-0.03077 z"
       id="path1237"
       inkscape:connector-curvature="0"
       inkscape:path-effect="#path-effect1239"
       inkscape:original-d="m 236.08312,51.464642 c 3.14902,0.02393 6.29744,0.04861 9.44525,0.07405 0.45707,0.01158 0.91403,0.02392 1.37073,0.03702 0.52827,0.06103 1.0543,0.122634 1.58071,0.185121 -0.20372,0.666009 -0.40785,1.331635 -0.61312,1.999317 -1.7896,3.871152 -3.57817,7.7392 -5.36709,11.60714 0.0203,0.178116 0.0398,0.357257 0.0586,0.536855 0.1202,0.07379 0.23822,0.147347 0.35642,0.222145 2.58932,-0.02538 5.18856,-0.05011 7.78194,-0.07405 0.42895,0.09799 0.85698,0.196686 1.28452,0.296194 0.29242,0.258492 0.58375,0.517434 0.87477,0.777513 -0.25112,0.876028 -0.50199,1.749337 -0.75514,2.62873 -4.89638,7.993669 -9.7668,15.944477 -14.65126,23.917743 -0.68382,0.560783 -1.3669,1.121092 -2.05373,1.684613 -0.5286,-0.08733 -1.0558,-0.173558 -1.58457,-0.259168 -0.33088,-0.451061 -0.66283,-0.901807 -0.99523,-1.35139 6e-4,-0.420241 6e-4,-0.839971 0,-1.258832 1.14703,-4.95315 2.29756,-9.923281 3.44544,-14.883796 0.11926,-0.531329 0.23781,-1.062108 0.35559,-1.592051 -0.73081,0.14735 -1.46069,0.29511 -2.19464,0.444293 -1.4687,-0.08733 -2.92997,-0.173438 -4.39839,-0.259169 -0.41524,-0.09959 -0.83019,-0.198175 -1.24666,-0.296197 -0.061,-0.358796 -0.12267,-0.716554 -0.18513,-1.073707 0.10179,-0.383335 0.20285,-0.766018 0.30311,-1.147755 0.23772,-0.739686 0.47584,-1.481725 0.71285,-2.221463 1.48389,-6.040672 2.97081,-12.095378 4.45531,-18.141943 0.11234,-0.42023 0.22398,-0.8399 0.33487,-1.258828 0.14684,-0.111842 0.29276,-0.222801 0.43821,-0.33322 0.41666,-0.08722 0.83172,-0.1735 1.24667,-0.25917 z"
       sodipodi:nodetypes="cccccccccccccccccccccccccccccc" /></g><g
     inkscape:groupmode="layer"
     id="layer1"
     inkscape:label="Logo"
     transform="translate(-11.869608,-32.194107)"><g
       id="g1214"
       transform="translate(32.984049,1.6755319)"
       style="fill:#0d7c67;fill-opacity:1;stroke:none;stroke-width:3.75000596;stroke-miterlimit:3;stroke-dasharray:none;stroke-opacity:1"><text
         id="text1114"
         y="102.48026"
         x="-28.201366"
         style="font-style:normal;font-weight:normal;font-size:70.00010681px;line-height:1.25;font-family:sans-serif;letter-spacing:0px;word-spacing:0px;fill:#0d7c67;fill-opacity:1;stroke:none;stroke-width:3.75000596;stroke-miterlimit:3;stroke-dasharray:none;stroke-opacity:1"
         xml:space="preserve"><tspan
           dx="0 0 0 0"
           dy="0 0 0 0"
           style="font-style:normal;font-variant:normal;font-weight:600;font-stretch:normal;font-size:82.0001297px;line-height:0;font-family:'Segoe UI';-inkscape-font-specification:'Segoe UI Semi-Bold';letter-spacing:-5.44500875px;fill:#0d7c67;fill-opacity:1;stroke:none;stroke-width:3.75000596;stroke-miterlimit:3;stroke-dasharray:none;stroke-opacity:1"
           y="102.48026"
           x="-28.201366"
           id="tspan1112"
           sodipodi:role="line">Barrel</tspan></text>
</g><path
       style="fill:none;stroke:#0d7c67;stroke-width:5.1750083;stroke-linecap:butt;stroke-linejoin:miter;stroke-miterlimit:3;stroke-dasharray:none;stroke-opacity:1"
       d="m 240.62072,102.71287 c -8.25002,0 -16.49928,0 -22.12493,-0.41519 -5.62565,-0.41518 -8.62489,-1.2454 -11.37548,-2.427227 -2.7506,-1.181825 -5.23119,-2.702745 -7.09862,-4.973508 -1.86743,-2.270763 -3.06458,-5.222078 -3.81578,-8.091297 -0.7512,-2.869219 -1.04742,-5.633963 -0.85521,-8.522805 0.19221,-2.888843 0.8941,-5.997219 2.05418,-8.662638 1.16007,-2.665419 2.7896,-4.936891 4.66523,-6.837071 1.87562,-1.90018 3.99915,-3.431096 6.18862,-4.539427 2.18948,-1.108331 4.47497,-1.803913 5.60993,-2.149338 1.13497,-0.345425 1.13497,-0.345425 1.33276,-0.592665 0.19779,-0.24724 0.59272,-0.740902 1.06143,-1.974878 0.46871,-1.233976 1.01184,-3.209013 1.88829,-5.341458 0.87645,-2.132445 2.08718,-4.424748 3.98744,-6.535878 1.90025,-2.11113 4.49021,-4.042392 7.31603,-5.191999 2.82582,-1.149608 5.88754,-1.518098 8.42998,-1.652928 2.54243,-0.134829 4.56714,-0.03606 6.66465,0.4575 2.0975,0.493561 4.27036,1.382459 6.31875,2.517725 2.0484,1.135266 3.974,2.51775 5.52887,3.998557 1.55486,1.480807 2.73973,3.060631 3.70236,4.541582 0.96264,1.480951 1.70307,2.86309 2.19676,4.097202 0.49369,1.234111 0.74047,2.319949 1.23438,3.233679 0.49391,0.91373 1.23353,1.653349 1.60402,2.02384 0.37049,0.370491 0.37049,0.370491 1.38212,0.61723 1.01163,0.246738 3.03691,0.740709 5.03576,1.703137 1.99886,0.962428 3.97401,2.394413 5.64083,3.838281 1.66682,1.443869 3.07214,2.949574 4.30623,4.899385 1.23409,1.949811 2.32012,4.368697 2.98661,6.664204 0.6665,2.295506 0.91329,4.467293 0.81378,6.742851 -0.0995,2.275557 -0.54201,4.63546 -1.20847,6.758509 -0.66647,2.123049 -1.55474,3.998268 -2.75245,5.71418 -1.19772,1.715912 -2.75124,3.319543 -5.46407,4.976315 -2.71284,1.656771 -6.60679,3.38956 -12.68201,4.25685 -6.07523,0.86728 -14.32198,0.86728 -22.57199,0.86728 z"
       id="path1208"
       inkscape:connector-curvature="0"
       inkscape:path-effect="#path-effect1210"
       inkscape:original-d="m 240.61996,102.71287 c -8.24926,-7.5e-4 -16.49852,-7.5e-4 -24.75004,0 -2.99953,-0.83126 -5.99877,-1.66148 -9.00001,-2.4913 -2.49966,-1.533822 -4.98025,-3.054741 -7.50001,-4.598467 -1.21474,-2.997287 -2.41188,-5.948604 -3.61895,-8.921785 -0.29542,-2.764977 -0.59164,-5.529721 -0.88859,-8.293453 0.69171,-3.011345 1.383,-6.122116 2.07337,-9.182048 1.62936,-2.27093 3.25889,-4.542406 4.88722,-6.812485 2.12268,-1.530518 4.24621,-3.061432 6.36819,-4.591022 2.27067,-0.642249 4.54241,-1.382994 6.81249,-2.073366 7.5e-4,-7.5e-4 7.5e-4,-7.5e-4 0,0 0.39567,-0.494409 0.7906,-0.988067 1.18477,-1.480975 0.54366,-1.974981 1.0868,-3.950016 1.62907,-5.9239 1.2104,-2.290999 2.42113,-4.583303 3.63057,-6.873827 2.5907,-1.932006 5.18066,-3.863267 7.76986,-5.793771 3.06245,-0.369239 6.12417,-0.737729 9.18513,-1.105468 2.02403,0.09795 4.04874,0.196713 6.072,0.296195 2.17208,0.887522 4.34494,1.77642 6.51629,2.665754 1.92568,1.381252 3.85128,2.763737 5.7758,4.146731 1.18544,1.578841 2.37031,3.158663 3.55434,4.739119 0.74129,1.381598 1.48172,2.763737 2.22146,4.14673 0.24762,1.085511 0.49441,2.171347 0.74049,3.258145 0.74161,0.740112 1.48123,1.479728 2.22146,2.221462 7.5e-4,-7.5e-4 7.5e-4,-7.5e-4 0,0 2.02347,0.492597 4.04875,0.986568 6.072,1.480976 1.97486,1.43048 3.95001,2.862468 5.9239,4.294827 1.33353,1.480123 2.76524,2.9612 4.14672,4.442925 1.08682,2.418219 2.17286,4.837101 3.25815,7.256778 0.24761,2.171653 0.49441,4.343439 0.74049,6.51629 -0.49306,2.369524 -0.88783,4.738373 -1.33288,7.108676 -0.88816,1.875836 -1.77642,3.751056 -2.66576,5.627709 -1.48093,1.579713 -3.05993,3.15866 -4.59102,4.739115 -3.89474,1.732728 -7.78869,3.465525 -11.68647,5.200435 -8.25252,-7.5e-4 -16.49927,-7.5e-4 -24.75004,0 z"
       sodipodi:nodetypes="cccccccccccccccccccccccccccccccccc" /></g></svg>